name rise42.5664peak47.7979fall81.9185.mot
datacolumns 19
datarows 30
range 19.58825500000000 19.63659000000000
endheader
time	ground_force1_vx	ground_force1_vy	ground_force1_vz	ground_force1_px	ground_force1_py	ground_force1_pz	ground_force2_vx	ground_force2_vy	ground_force2_vz	ground_force2_px	ground_force2_py	ground_force2_pz	ground_torque1_x	ground_torque1_y	ground_torque1_z	ground_torque2_x	ground_torque2_y	ground_torque2_z	
19.58825500000000	53.79178700000000	767.16306499999996	41.06758000000000	0.32183700000000	0.00000000000000	0.10057900000000	0.00000000000000	0.00000000000000	0.00000000000000	0.00000000000000	0.00000000000000	0.00000000000000	0.00000000000000	13.41610700000000	0.00000000000000	0.00000000000000	0.00000000000000	0.00000000000000	
19.58993700000000	53.25791500000000	770.06443100000001	41.19447500000000	0.32114200000000	0.00000000000000	0.10057500000000	0.00000000000000	0.00000000000000	0.00000000000000	0.00000000000000	0.00000000000000	0.00000000000000	0.00000000000000	13.48052100000000	0.00000000000000	0.00000000000000	0.00000000000000	0.00000000000000	
19.59160500000000	52.72039100000000	772.80499999999995	41.32534900000000	0.32045800000000	0.00000000000000	0.10057400000000	0.00000000000000	0.00000000000000	0.00000000000000	0.00000000000000	0.00000000000000	0.00000000000000	0.00000000000000	13.54917400000000	0.00000000000000	0.00000000000000	0.00000000000000	0.00000000000000	
19.59325600000000	52.17964300000000	775.38314200000002	41.45994500000000	0.31978500000000	0.00000000000000	0.10057400000000	0.00000000000000	0.00000000000000	0.00000000000000	0.00000000000000	0.00000000000000	0.00000000000000	0.00000000000000	13.62188400000000	0.00000000000000	0.00000000000000	0.00000000000000	0.00000000000000	
19.59492600000000	51.63605800000000	777.79746999999998	41.59793700000000	0.31912100000000	0.00000000000000	0.10057600000000	0.00000000000000	0.00000000000000	0.00000000000000	0.00000000000000	0.00000000000000	0.00000000000000	0.00000000000000	13.69843200000000	0.00000000000000	0.00000000000000	0.00000000000000	0.00000000000000	
19.59659400000000	51.08997600000000	780.04685500000005	41.73893500000000	0.31846300000000	0.00000000000000	0.10058000000000	0.00000000000000	0.00000000000000	0.00000000000000	0.00000000000000	0.00000000000000	0.00000000000000	0.00000000000000	13.77855500000000	0.00000000000000	0.00000000000000	0.00000000000000	0.00000000000000	
19.59825400000000	50.54169800000000	782.13043100000004	41.88248700000000	0.31781100000000	0.00000000000000	0.10058500000000	0.00000000000000	0.00000000000000	0.00000000000000	0.00000000000000	0.00000000000000	0.00000000000000	0.00000000000000	13.86195900000000	0.00000000000000	0.00000000000000	0.00000000000000	0.00000000000000	
19.59992600000000	49.99148900000000	784.04760999999996	42.02809200000000	0.31716300000000	0.00000000000000	0.10059300000000	0.00000000000000	0.00000000000000	0.00000000000000	0.00000000000000	0.00000000000000	0.00000000000000	0.00000000000000	13.94831100000000	0.00000000000000	0.00000000000000	0.00000000000000	0.00000000000000	
19.60159000000000	49.43957900000000	785.79807900000003	42.17519700000000	0.31651600000000	0.00000000000000	0.10060200000000	0.00000000000000	0.00000000000000	0.00000000000000	0.00000000000000	0.00000000000000	0.00000000000000	0.00000000000000	14.03725400000000	0.00000000000000	0.00000000000000	0.00000000000000	0.00000000000000	
19.60325600000000	48.88617100000000	787.38181799999995	42.32321100000000	0.31587000000000	0.00000000000000	0.10061300000000	0.00000000000000	0.00000000000000	0.00000000000000	0.00000000000000	0.00000000000000	0.00000000000000	0.00000000000000	14.12839900000000	0.00000000000000	0.00000000000000	0.00000000000000	0.00000000000000	
19.60492400000000	48.33143800000000	788.79909499999997	42.47150700000000	0.31522200000000	0.00000000000000	0.10062500000000	0.00000000000000	0.00000000000000	0.00000000000000	0.00000000000000	0.00000000000000	0.00000000000000	0.00000000000000	14.22133900000000	0.00000000000000	0.00000000000000	0.00000000000000	0.00000000000000	
19.60659200000000	47.77553400000000	790.05047300000001	42.61942700000000	0.31457100000000	0.00000000000000	0.10064000000000	0.00000000000000	0.00000000000000	0.00000000000000	0.00000000000000	0.00000000000000	0.00000000000000	0.00000000000000	14.31564400000000	0.00000000000000	0.00000000000000	0.00000000000000	0.00000000000000	
19.60826000000000	47.21859300000000	791.13681399999996	42.76629500000000	0.31391500000000	0.00000000000000	0.10065600000000	0.00000000000000	0.00000000000000	0.00000000000000	0.00000000000000	0.00000000000000	0.00000000000000	0.00000000000000	14.41086800000000	0.00000000000000	0.00000000000000	0.00000000000000	0.00000000000000	
19.60993600000000	46.66073200000000	792.05927799999995	42.91141400000000	0.31325200000000	0.00000000000000	0.10067400000000	0.00000000000000	0.00000000000000	0.00000000000000	0.00000000000000	0.00000000000000	0.00000000000000	0.00000000000000	14.50655500000000	0.00000000000000	0.00000000000000	0.00000000000000	0.00000000000000	
19.61159300000000	46.10205700000000	792.81932300000005	43.05408100000000	0.31258100000000	0.00000000000000	0.10069300000000	0.00000000000000	0.00000000000000	0.00000000000000	0.00000000000000	0.00000000000000	0.00000000000000	0.00000000000000	14.60223900000000	0.00000000000000	0.00000000000000	0.00000000000000	0.00000000000000	
19.61326100000000	45.54266800000000	793.41870200000005	43.19358800000000	0.31190000000000	0.00000000000000	0.10071500000000	0.00000000000000	0.00000000000000	0.00000000000000	0.00000000000000	0.00000000000000	0.00000000000000	0.00000000000000	14.69744900000000	0.00000000000000	0.00000000000000	0.00000000000000	0.00000000000000	
19.61493700000000	44.98265500000000	793.85946500000000	43.32922800000000	0.31120700000000	0.00000000000000	0.10073800000000	0.00000000000000	0.00000000000000	0.00000000000000	0.00000000000000	0.00000000000000	0.00000000000000	0.00000000000000	14.79171300000000	0.00000000000000	0.00000000000000	0.00000000000000	0.00000000000000	
19.61658700000000	44.42211100000000	794.14394800000002	43.46030500000000	0.31050200000000	0.00000000000000	0.10076200000000	0.00000000000000	0.00000000000000	0.00000000000000	0.00000000000000	0.00000000000000	0.00000000000000	0.00000000000000	14.88456100000000	0.00000000000000	0.00000000000000	0.00000000000000	0.00000000000000	
19.61825500000000	43.86112800000000	794.27477399999998	43.58613400000000	0.30978100000000	0.00000000000000	0.10078800000000	0.00000000000000	0.00000000000000	0.00000000000000	0.00000000000000	0.00000000000000	0.00000000000000	0.00000000000000	14.97552800000000	0.00000000000000	0.00000000000000	0.00000000000000	0.00000000000000	
19.61993800000000	43.29979900000000	794.25484700000004	43.70605200000000	0.30904400000000	0.00000000000000	0.10081500000000	0.00000000000000	0.00000000000000	0.00000000000000	0.00000000000000	0.00000000000000	0.00000000000000	0.00000000000000	15.06415900000000	0.00000000000000	0.00000000000000	0.00000000000000	0.00000000000000	
19.62159200000000	42.73822900000000	794.08733700000005	43.81941600000000	0.30829000000000	0.00000000000000	0.10084400000000	0.00000000000000	0.00000000000000	0.00000000000000	0.00000000000000	0.00000000000000	0.00000000000000	0.00000000000000	15.15001000000000	0.00000000000000	0.00000000000000	0.00000000000000	0.00000000000000	
19.62326000000000	42.17652800000000	793.77568099999996	43.92561500000000	0.30751700000000	0.00000000000000	0.10087400000000	0.00000000000000	0.00000000000000	0.00000000000000	0.00000000000000	0.00000000000000	0.00000000000000	0.00000000000000	15.23265300000000	0.00000000000000	0.00000000000000	0.00000000000000	0.00000000000000	
19.62493900000000	41.61481800000000	793.32356900000002	44.02407100000000	0.30672400000000	0.00000000000000	0.10090600000000	0.00000000000000	0.00000000000000	0.00000000000000	0.00000000000000	0.00000000000000	0.00000000000000	0.00000000000000	15.31167700000000	0.00000000000000	0.00000000000000	0.00000000000000	0.00000000000000	
19.62659200000000	41.05323500000000	792.73493399999995	44.11423900000000	0.30591000000000	0.00000000000000	0.10093900000000	0.00000000000000	0.00000000000000	0.00000000000000	0.00000000000000	0.00000000000000	0.00000000000000	0.00000000000000	15.38669300000000	0.00000000000000	0.00000000000000	0.00000000000000	0.00000000000000	
19.62825400000000	40.49192900000000	792.01394200000004	44.19561900000000	0.30507400000000	0.00000000000000	0.10097300000000	0.00000000000000	0.00000000000000	0.00000000000000	0.00000000000000	0.00000000000000	0.00000000000000	0.00000000000000	15.45733500000000	0.00000000000000	0.00000000000000	0.00000000000000	0.00000000000000	
19.62992500000000	39.93106600000000	791.16498000000001	44.26775100000000	0.30421500000000	0.00000000000000	0.10100800000000	0.00000000000000	0.00000000000000	0.00000000000000	0.00000000000000	0.00000000000000	0.00000000000000	0.00000000000000	15.52326000000000	0.00000000000000	0.00000000000000	0.00000000000000	0.00000000000000	
19.63159200000000	39.37083000000000	790.19264099999998	44.33022400000000	0.30333300000000	0.00000000000000	0.10104400000000	0.00000000000000	0.00000000000000	0.00000000000000	0.00000000000000	0.00000000000000	0.00000000000000	0.00000000000000	15.58415400000000	0.00000000000000	0.00000000000000	0.00000000000000	0.00000000000000	
19.63325600000000	38.81142500000000	789.10171600000001	44.38267300000000	0.30242600000000	0.00000000000000	0.10108100000000	0.00000000000000	0.00000000000000	0.00000000000000	0.00000000000000	0.00000000000000	0.00000000000000	0.00000000000000	15.63973400000000	0.00000000000000	0.00000000000000	0.00000000000000	0.00000000000000	
19.63492500000000	38.25307000000000	787.89717299999995	44.42478400000000	0.30149500000000	0.00000000000000	0.10111900000000	0.00000000000000	0.00000000000000	0.00000000000000	0.00000000000000	0.00000000000000	0.00000000000000	0.00000000000000	15.68974300000000	0.00000000000000	0.00000000000000	0.00000000000000	0.00000000000000	
19.63659000000000	37.69600700000000	786.58415100000002	44.45629400000000	0.30053800000000	0.00000000000000	0.10115800000000	0.00000000000000	0.00000000000000	0.00000000000000	0.00000000000000	0.00000000000000	0.00000000000000	0.00000000000000	15.73395900000000	0.00000000000000	0.00000000000000	0.00000000000000	0.00000000000000	
